<?xml version="1.0" encoding="UTF-8"?>
<svg width="16px" height="22px" viewBox="0 0 16 22" version="1.1" xmlns="http://www.w3.org/2000/svg" xmlns:xlink="http://www.w3.org/1999/xlink">
    <title>形状</title>
    <g id="页面-1" stroke="none" stroke-width="1" fill="none" fill-rule="evenodd">
        <g id="社区自治" transform="translate(-133.000000, -108.000000)" fill="#F2B171" fill-rule="nonzero">
            <path d="M146.452381,121.302899 C146.297619,121.162055 146.142857,121.021212 145.97619,120.868631 C146.154762,120.692576 146.285714,120.586943 146.416667,120.457837 C147.357143,119.530615 147.607143,118.063493 147,116.901532 C146.392857,115.727834 145.309524,115.211407 144.083333,114.894509 C143.630952,114.777139 143.154762,114.718454 142.607143,114.624558 C144.75,112.429743 146.821429,110.317087 149,108.087061 C148.583333,108.087061 148.345238,108.087061 148.119048,108.075324 C147.166667,108.087061 146.107143,107.840585 145.297619,108.180957 C144.488095,108.533067 143.940476,109.460288 143.285714,110.141033 C142.511905,110.939147 141.738095,111.748999 140.940476,112.570587 C139.892857,111.479048 138.821429,110.481405 137.904762,109.366392 C137.083333,108.368749 136.178571,108.05185 134.857143,108.075324 C133.52381,108.098798 133.714286,108.087061 133,108.087061 C135.22619,110.328824 137.321429,112.44148 139.535714,114.659769 C139.190476,114.659769 139,114.671506 138.809524,114.659769 C137.833333,114.624558 136.857143,114.554136 135.892857,114.57761 C135.821429,114.57761 135.761905,114.601084 135.690476,114.636295 L135.690476,115.516569 C135.738095,115.540043 135.785714,115.563517 135.833333,115.563517 C136.511905,115.692623 136.761905,115.915626 136.761905,116.596371 C136.761905,119.5893 136.761905,122.58223 136.761905,125.575159 C136.761905,126.3498 136.440476,126.725383 135.690476,126.983597 L135.690476,127.664341 C135.72619,127.676078 135.761905,127.676078 135.797619,127.676078 C136.809524,127.711289 137.821429,127.687815 138.833333,127.687815 C139.535714,127.687815 139.607143,127.793448 139.547619,128.474193 C139.5,128.978883 139.535714,129.507047 139.535714,130 C140.547619,130 141.488095,130 142.47619,130 C142.47619,129.460099 142.488095,128.955409 142.47619,128.450719 C142.464286,128.028188 142.642857,127.852133 143.083333,127.758237 C143.964286,127.570445 144.892857,127.429602 145.690476,127.042281 C148.154762,125.833373 148.488095,123.145605 146.452381,121.302899 Z M141.574454,116.684211 C142.118063,116.69661 142.698736,116.69661 143.217636,116.832999 C144.020695,117.056183 144.514885,117.849724 144.416047,118.56887 C144.2925,119.399609 143.625343,119.994764 142.748155,120.044361 C142.402222,120.069159 142.043934,120.081558 141.698001,120.093957 C139.869498,120.255145 139.857143,120.242746 139.857143,118.432481 C139.857143,116.721408 139.881852,116.684211 141.574454,116.684211 Z M143.030655,125.256743 C142.654579,125.279079 142.278503,125.290247 141.902427,125.312582 C141.902427,125.334918 141.902427,125.346086 141.902427,125.368421 C141.513816,125.368421 141.112668,125.368421 140.711521,125.368421 C140.185015,125.368421 139.89669,125.100395 139.871618,124.653684 C139.846546,124.005953 139.859082,123.347055 139.871618,122.699324 C139.89669,122.207943 140.247694,121.951084 140.761664,121.928748 C141.563959,121.895245 142.353718,121.872909 143.143477,121.928748 C144.19649,121.995755 145.036392,122.811002 144.998785,123.648585 C144.961177,124.530838 144.13381,125.212072 143.030655,125.256743 Z" id="形状"></path>
        </g>
    </g>
</svg>